<svg xmlns="http://www.w3.org/2000/svg" viewBox="0 0 584 584"><!-- The fun side's watch face: a page of the sketchbook, dots on the dark. --><g fill="#F4F1EA" fill-opacity=".16"><circle cx="32" cy="212" r="1.7"/><circle cx="32" cy="232" r="1.7"/><circle cx="32" cy="252" r="1.7"/><circle cx="32" cy="272" r="1.7"/><circle cx="32" cy="292" r="1.7"/><circle cx="32" cy="312" r="1.7"/><circle cx="32" cy="332" r="1.7"/><circle cx="32" cy="352" r="1.7"/><circle cx="32" cy="372" r="1.7"/><circle cx="52" cy="172" r="1.7"/><circle cx="52" cy="192" r="1.7"/><circle cx="52" cy="212" r="1.7"/><circle cx="52" cy="232" r="1.7"/><circle cx="52" cy="252" r="1.7"/><circle cx="52" cy="272" r="1.7"/><circle cx="52" cy="292" r="1.7"/><circle cx="52" cy="312" r="1.7"/><circle cx="52" cy="332" r="1.7"/><circle cx="52" cy="352" r="1.7"/><circle cx="52" cy="372" r="1.7"/><circle cx="52" cy="392" r="1.7"/><circle cx="52" cy="412" r="1.7"/><circle cx="72" cy="132" r="1.7"/><circle cx="72" cy="152" r="1.7"/><circle cx="72" cy="172" r="1.7"/><circle cx="72" cy="192" r="1.7"/><circle cx="72" cy="212" r="1.7"/><circle cx="72" cy="232" r="1.7"/><circle cx="72" cy="252" r="1.7"/><circle cx="72" cy="272" r="1.7"/><circle cx="72" cy="292" r="1.7"/><circle cx="72" cy="312" r="1.7"/><circle cx="72" cy="332" r="1.7"/><circle cx="72" cy="352" r="1.7"/><circle cx="72" cy="372" r="1.7"/><circle cx="72" cy="392" r="1.7"/><circle cx="72" cy="412" r="1.7"/><circle cx="72" cy="432" r="1.7"/><circle cx="72" cy="452" r="1.7"/><circle cx="92" cy="112" r="1.7"/><circle cx="92" cy="132" r="1.7"/><circle cx="92" cy="152" r="1.7"/><circle cx="92" cy="172" r="1.7"/><circle cx="92" cy="192" r="1.7"/><circle cx="92" cy="212" r="1.7"/><circle cx="92" cy="232" r="1.7"/><circle cx="92" cy="252" r="1.7"/><circle cx="92" cy="272" r="1.7"/><circle cx="92" cy="292" r="1.7"/><circle cx="92" cy="312" r="1.7"/><circle cx="92" cy="332" r="1.7"/><circle cx="92" cy="352" r="1.7"/><circle cx="92" cy="372" r="1.7"/><circle cx="92" cy="392" r="1.7"/><circle cx="92" cy="412" r="1.7"/><circle cx="92" cy="432" r="1.7"/><circle cx="92" cy="452" r="1.7"/><circle cx="92" cy="472" r="1.7"/><circle cx="112" cy="92" r="1.7"/><circle cx="112" cy="112" r="1.7"/><circle cx="112" cy="132" r="1.7"/><circle cx="112" cy="152" r="1.7"/><circle cx="112" cy="172" r="1.7"/><circle cx="112" cy="192" r="1.7"/><circle cx="112" cy="212" r="1.7"/><circle cx="112" cy="232" r="1.7"/><circle cx="112" cy="252" r="1.7"/><circle cx="112" cy="272" r="1.7"/><circle cx="112" cy="292" r="1.7"/><circle cx="112" cy="312" r="1.7"/><circle cx="112" cy="332" r="1.7"/><circle cx="112" cy="352" r="1.7"/><circle cx="112" cy="372" r="1.7"/><circle cx="112" cy="392" r="1.7"/><circle cx="112" cy="412" r="1.7"/><circle cx="112" cy="432" r="1.7"/><circle cx="112" cy="452" r="1.7"/><circle cx="112" cy="472" r="1.7"/><circle cx="112" cy="492" r="1.7"/><circle cx="132" cy="72" r="1.7"/><circle cx="132" cy="92" r="1.7"/><circle cx="132" cy="112" r="1.7"/><circle cx="132" cy="132" r="1.7"/><circle cx="132" cy="152" r="1.7"/><circle cx="132" cy="172" r="1.7"/><circle cx="132" cy="192" r="1.7"/><circle cx="132" cy="212" r="1.7"/><circle cx="132" cy="232" r="1.7"/><circle cx="132" cy="252" r="1.7"/><circle cx="132" cy="272" r="1.7"/><circle cx="132" cy="292" r="1.7"/><circle cx="132" cy="312" r="1.7"/><circle cx="132" cy="332" r="1.7"/><circle cx="132" cy="352" r="1.7"/><circle cx="132" cy="372" r="1.7"/><circle cx="132" cy="392" r="1.7"/><circle cx="132" cy="412" r="1.7"/><circle cx="132" cy="432" r="1.7"/><circle cx="132" cy="452" r="1.7"/><circle cx="132" cy="472" r="1.7"/><circle cx="132" cy="492" r="1.7"/><circle cx="132" cy="512" r="1.7"/><circle cx="152" cy="72" r="1.7"/><circle cx="152" cy="92" r="1.7"/><circle cx="152" cy="112" r="1.7"/><circle cx="152" cy="132" r="1.7"/><circle cx="152" cy="152" r="1.7"/><circle cx="152" cy="172" r="1.7"/><circle cx="152" cy="192" r="1.7"/><circle cx="152" cy="212" r="1.7"/><circle cx="152" cy="232" r="1.7"/><circle cx="152" cy="252" r="1.7"/><circle cx="152" cy="272" r="1.7"/><circle cx="152" cy="292" r="1.7"/><circle cx="152" cy="312" r="1.7"/><circle cx="152" cy="332" r="1.7"/><circle cx="152" cy="352" r="1.7"/><circle cx="152" cy="372" r="1.7"/><circle cx="152" cy="392" r="1.7"/><circle cx="152" cy="412" r="1.7"/><circle cx="152" cy="432" r="1.7"/><circle cx="152" cy="452" r="1.7"/><circle cx="152" cy="472" r="1.7"/><circle cx="152" cy="492" r="1.7"/><circle cx="152" cy="512" r="1.7"/><circle cx="172" cy="52" r="1.7"/><circle cx="172" cy="72" r="1.7"/><circle cx="172" cy="92" r="1.7"/><circle cx="172" cy="112" r="1.7"/><circle cx="172" cy="132" r="1.7"/><circle cx="172" cy="152" r="1.7"/><circle cx="172" cy="172" r="1.7"/><circle cx="172" cy="192" r="1.7"/><circle cx="172" cy="212" r="1.7"/><circle cx="172" cy="232" r="1.7"/><circle cx="172" cy="252" r="1.7"/><circle cx="172" cy="272" r="1.7"/><circle cx="172" cy="292" r="1.7"/><circle cx="172" cy="312" r="1.7"/><circle cx="172" cy="332" r="1.7"/><circle cx="172" cy="352" r="1.7"/><circle cx="172" cy="372" r="1.7"/><circle cx="172" cy="392" r="1.7"/><circle cx="172" cy="412" r="1.7"/><circle cx="172" cy="432" r="1.7"/><circle cx="172" cy="452" r="1.7"/><circle cx="172" cy="472" r="1.7"/><circle cx="172" cy="492" r="1.7"/><circle cx="172" cy="512" r="1.7"/><circle cx="172" cy="532" r="1.7"/><circle cx="192" cy="52" r="1.7"/><circle cx="192" cy="72" r="1.7"/><circle cx="192" cy="92" r="1.7"/><circle cx="192" cy="112" r="1.7"/><circle cx="192" cy="132" r="1.7"/><circle cx="192" cy="152" r="1.7"/><circle cx="192" cy="172" r="1.7"/><circle cx="192" cy="192" r="1.7"/><circle cx="192" cy="212" r="1.7"/><circle cx="192" cy="232" r="1.7"/><circle cx="192" cy="252" r="1.7"/><circle cx="192" cy="272" r="1.7"/><circle cx="192" cy="292" r="1.7"/><circle cx="192" cy="312" r="1.7"/><circle cx="192" cy="332" r="1.7"/><circle cx="192" cy="352" r="1.7"/><circle cx="192" cy="372" r="1.7"/><circle cx="192" cy="392" r="1.7"/><circle cx="192" cy="412" r="1.7"/><circle cx="192" cy="432" r="1.7"/><circle cx="192" cy="452" r="1.7"/><circle cx="192" cy="472" r="1.7"/><circle cx="192" cy="492" r="1.7"/><circle cx="192" cy="512" r="1.7"/><circle cx="192" cy="532" r="1.7"/><circle cx="212" cy="32" r="1.7"/><circle cx="212" cy="52" r="1.7"/><circle cx="212" cy="72" r="1.7"/><circle cx="212" cy="92" r="1.7"/><circle cx="212" cy="112" r="1.7"/><circle cx="212" cy="132" r="1.7"/><circle cx="212" cy="152" r="1.7"/><circle cx="212" cy="172" r="1.7"/><circle cx="212" cy="192" r="1.7"/><circle cx="212" cy="212" r="1.7"/><circle cx="212" cy="232" r="1.7"/><circle cx="212" cy="252" r="1.7"/><circle cx="212" cy="272" r="1.7"/><circle cx="212" cy="292" r="1.7"/><circle cx="212" cy="312" r="1.7"/><circle cx="212" cy="332" r="1.7"/><circle cx="212" cy="352" r="1.7"/><circle cx="212" cy="372" r="1.7"/><circle cx="212" cy="392" r="1.7"/><circle cx="212" cy="412" r="1.7"/><circle cx="212" cy="432" r="1.7"/><circle cx="212" cy="452" r="1.7"/><circle cx="212" cy="472" r="1.7"/><circle cx="212" cy="492" r="1.7"/><circle cx="212" cy="512" r="1.7"/><circle cx="212" cy="532" r="1.7"/><circle cx="212" cy="552" r="1.7"/><circle cx="232" cy="32" r="1.7"/><circle cx="232" cy="52" r="1.7"/><circle cx="232" cy="72" r="1.7"/><circle cx="232" cy="92" r="1.7"/><circle cx="232" cy="112" r="1.7"/><circle cx="232" cy="132" r="1.7"/><circle cx="232" cy="152" r="1.7"/><circle cx="232" cy="172" r="1.7"/><circle cx="232" cy="192" r="1.7"/><circle cx="232" cy="212" r="1.7"/><circle cx="232" cy="232" r="1.7"/><circle cx="232" cy="252" r="1.7"/><circle cx="232" cy="272" r="1.7"/><circle cx="232" cy="292" r="1.7"/><circle cx="232" cy="312" r="1.7"/><circle cx="232" cy="332" r="1.7"/><circle cx="232" cy="352" r="1.7"/><circle cx="232" cy="372" r="1.7"/><circle cx="232" cy="392" r="1.7"/><circle cx="232" cy="412" r="1.7"/><circle cx="232" cy="432" r="1.7"/><circle cx="232" cy="452" r="1.7"/><circle cx="232" cy="472" r="1.7"/><circle cx="232" cy="492" r="1.7"/><circle cx="232" cy="512" r="1.7"/><circle cx="232" cy="532" r="1.7"/><circle cx="232" cy="552" r="1.7"/><circle cx="252" cy="32" r="1.7"/><circle cx="252" cy="52" r="1.7"/><circle cx="252" cy="72" r="1.7"/><circle cx="252" cy="92" r="1.7"/><circle cx="252" cy="112" r="1.7"/><circle cx="252" cy="132" r="1.7"/><circle cx="252" cy="152" r="1.7"/><circle cx="252" cy="172" r="1.7"/><circle cx="252" cy="192" r="1.7"/><circle cx="252" cy="212" r="1.7"/><circle cx="252" cy="232" r="1.7"/><circle cx="252" cy="252" r="1.7"/><circle cx="252" cy="272" r="1.7"/><circle cx="252" cy="292" r="1.7"/><circle cx="252" cy="312" r="1.7"/><circle cx="252" cy="332" r="1.7"/><circle cx="252" cy="352" r="1.7"/><circle cx="252" cy="372" r="1.7"/><circle cx="252" cy="392" r="1.7"/><circle cx="252" cy="412" r="1.7"/><circle cx="252" cy="432" r="1.7"/><circle cx="252" cy="452" r="1.7"/><circle cx="252" cy="472" r="1.7"/><circle cx="252" cy="492" r="1.7"/><circle cx="252" cy="512" r="1.7"/><circle cx="252" cy="532" r="1.7"/><circle cx="252" cy="552" r="1.7"/><circle cx="272" cy="32" r="1.7"/><circle cx="272" cy="52" r="1.7"/><circle cx="272" cy="72" r="1.7"/><circle cx="272" cy="92" r="1.7"/><circle cx="272" cy="112" r="1.7"/><circle cx="272" cy="132" r="1.7"/><circle cx="272" cy="152" r="1.7"/><circle cx="272" cy="172" r="1.7"/><circle cx="272" cy="192" r="1.7"/><circle cx="272" cy="212" r="1.7"/><circle cx="272" cy="232" r="1.7"/><circle cx="272" cy="252" r="1.7"/><circle cx="272" cy="272" r="1.7"/><circle cx="272" cy="292" r="1.7"/><circle cx="272" cy="312" r="1.7"/><circle cx="272" cy="332" r="1.7"/><circle cx="272" cy="352" r="1.7"/><circle cx="272" cy="372" r="1.7"/><circle cx="272" cy="392" r="1.7"/><circle cx="272" cy="412" r="1.7"/><circle cx="272" cy="432" r="1.7"/><circle cx="272" cy="452" r="1.7"/><circle cx="272" cy="472" r="1.7"/><circle cx="272" cy="492" r="1.7"/><circle cx="272" cy="512" r="1.7"/><circle cx="272" cy="532" r="1.7"/><circle cx="272" cy="552" r="1.7"/><circle cx="292" cy="32" r="1.7"/><circle cx="292" cy="52" r="1.7"/><circle cx="292" cy="72" r="1.7"/><circle cx="292" cy="92" r="1.7"/><circle cx="292" cy="112" r="1.7"/><circle cx="292" cy="132" r="1.7"/><circle cx="292" cy="152" r="1.7"/><circle cx="292" cy="172" r="1.7"/><circle cx="292" cy="192" r="1.7"/><circle cx="292" cy="212" r="1.7"/><circle cx="292" cy="232" r="1.7"/><circle cx="292" cy="252" r="1.7"/><circle cx="292" cy="272" r="1.7"/><circle cx="292" cy="292" r="1.7"/><circle cx="292" cy="312" r="1.7"/><circle cx="292" cy="332" r="1.7"/><circle cx="292" cy="352" r="1.7"/><circle cx="292" cy="372" r="1.7"/><circle cx="292" cy="392" r="1.7"/><circle cx="292" cy="412" r="1.7"/><circle cx="292" cy="432" r="1.7"/><circle cx="292" cy="452" r="1.7"/><circle cx="292" cy="472" r="1.7"/><circle cx="292" cy="492" r="1.7"/><circle cx="292" cy="512" r="1.7"/><circle cx="292" cy="532" r="1.7"/><circle cx="292" cy="552" r="1.7"/><circle cx="312" cy="32" r="1.7"/><circle cx="312" cy="52" r="1.7"/><circle cx="312" cy="72" r="1.7"/><circle cx="312" cy="92" r="1.7"/><circle cx="312" cy="112" r="1.7"/><circle cx="312" cy="132" r="1.7"/><circle cx="312" cy="152" r="1.7"/><circle cx="312" cy="172" r="1.7"/><circle cx="312" cy="192" r="1.7"/><circle cx="312" cy="212" r="1.7"/><circle cx="312" cy="232" r="1.7"/><circle cx="312" cy="252" r="1.7"/><circle cx="312" cy="272" r="1.7"/><circle cx="312" cy="292" r="1.7"/><circle cx="312" cy="312" r="1.7"/><circle cx="312" cy="332" r="1.7"/><circle cx="312" cy="352" r="1.7"/><circle cx="312" cy="372" r="1.7"/><circle cx="312" cy="392" r="1.7"/><circle cx="312" cy="412" r="1.7"/><circle cx="312" cy="432" r="1.7"/><circle cx="312" cy="452" r="1.7"/><circle cx="312" cy="472" r="1.7"/><circle cx="312" cy="492" r="1.7"/><circle cx="312" cy="512" r="1.7"/><circle cx="312" cy="532" r="1.7"/><circle cx="312" cy="552" r="1.7"/><circle cx="332" cy="32" r="1.7"/><circle cx="332" cy="52" r="1.7"/><circle cx="332" cy="72" r="1.7"/><circle cx="332" cy="92" r="1.7"/><circle cx="332" cy="112" r="1.7"/><circle cx="332" cy="132" r="1.7"/><circle cx="332" cy="152" r="1.7"/><circle cx="332" cy="172" r="1.7"/><circle cx="332" cy="192" r="1.7"/><circle cx="332" cy="212" r="1.7"/><circle cx="332" cy="232" r="1.7"/><circle cx="332" cy="252" r="1.7"/><circle cx="332" cy="272" r="1.7"/><circle cx="332" cy="292" r="1.7"/><circle cx="332" cy="312" r="1.7"/><circle cx="332" cy="332" r="1.7"/><circle cx="332" cy="352" r="1.7"/><circle cx="332" cy="372" r="1.7"/><circle cx="332" cy="392" r="1.7"/><circle cx="332" cy="412" r="1.7"/><circle cx="332" cy="432" r="1.7"/><circle cx="332" cy="452" r="1.7"/><circle cx="332" cy="472" r="1.7"/><circle cx="332" cy="492" r="1.7"/><circle cx="332" cy="512" r="1.7"/><circle cx="332" cy="532" r="1.7"/><circle cx="332" cy="552" r="1.7"/><circle cx="352" cy="32" r="1.7"/><circle cx="352" cy="52" r="1.7"/><circle cx="352" cy="72" r="1.7"/><circle cx="352" cy="92" r="1.7"/><circle cx="352" cy="112" r="1.7"/><circle cx="352" cy="132" r="1.7"/><circle cx="352" cy="152" r="1.7"/><circle cx="352" cy="172" r="1.7"/><circle cx="352" cy="192" r="1.7"/><circle cx="352" cy="212" r="1.7"/><circle cx="352" cy="232" r="1.7"/><circle cx="352" cy="252" r="1.7"/><circle cx="352" cy="272" r="1.7"/><circle cx="352" cy="292" r="1.7"/><circle cx="352" cy="312" r="1.7"/><circle cx="352" cy="332" r="1.7"/><circle cx="352" cy="352" r="1.7"/><circle cx="352" cy="372" r="1.7"/><circle cx="352" cy="392" r="1.7"/><circle cx="352" cy="412" r="1.7"/><circle cx="352" cy="432" r="1.7"/><circle cx="352" cy="452" r="1.7"/><circle cx="352" cy="472" r="1.7"/><circle cx="352" cy="492" r="1.7"/><circle cx="352" cy="512" r="1.7"/><circle cx="352" cy="532" r="1.7"/><circle cx="352" cy="552" r="1.7"/><circle cx="372" cy="32" r="1.7"/><circle cx="372" cy="52" r="1.7"/><circle cx="372" cy="72" r="1.7"/><circle cx="372" cy="92" r="1.7"/><circle cx="372" cy="112" r="1.7"/><circle cx="372" cy="132" r="1.7"/><circle cx="372" cy="152" r="1.7"/><circle cx="372" cy="172" r="1.7"/><circle cx="372" cy="192" r="1.7"/><circle cx="372" cy="212" r="1.7"/><circle cx="372" cy="232" r="1.7"/><circle cx="372" cy="252" r="1.7"/><circle cx="372" cy="272" r="1.7"/><circle cx="372" cy="292" r="1.7"/><circle cx="372" cy="312" r="1.7"/><circle cx="372" cy="332" r="1.7"/><circle cx="372" cy="352" r="1.7"/><circle cx="372" cy="372" r="1.7"/><circle cx="372" cy="392" r="1.7"/><circle cx="372" cy="412" r="1.7"/><circle cx="372" cy="432" r="1.7"/><circle cx="372" cy="452" r="1.7"/><circle cx="372" cy="472" r="1.7"/><circle cx="372" cy="492" r="1.7"/><circle cx="372" cy="512" r="1.7"/><circle cx="372" cy="532" r="1.7"/><circle cx="372" cy="552" r="1.7"/><circle cx="392" cy="52" r="1.7"/><circle cx="392" cy="72" r="1.7"/><circle cx="392" cy="92" r="1.7"/><circle cx="392" cy="112" r="1.7"/><circle cx="392" cy="132" r="1.7"/><circle cx="392" cy="152" r="1.7"/><circle cx="392" cy="172" r="1.7"/><circle cx="392" cy="192" r="1.7"/><circle cx="392" cy="212" r="1.7"/><circle cx="392" cy="232" r="1.7"/><circle cx="392" cy="252" r="1.7"/><circle cx="392" cy="272" r="1.7"/><circle cx="392" cy="292" r="1.7"/><circle cx="392" cy="312" r="1.7"/><circle cx="392" cy="332" r="1.7"/><circle cx="392" cy="352" r="1.7"/><circle cx="392" cy="372" r="1.7"/><circle cx="392" cy="392" r="1.7"/><circle cx="392" cy="412" r="1.7"/><circle cx="392" cy="432" r="1.7"/><circle cx="392" cy="452" r="1.7"/><circle cx="392" cy="472" r="1.7"/><circle cx="392" cy="492" r="1.7"/><circle cx="392" cy="512" r="1.7"/><circle cx="392" cy="532" r="1.7"/><circle cx="412" cy="52" r="1.7"/><circle cx="412" cy="72" r="1.7"/><circle cx="412" cy="92" r="1.7"/><circle cx="412" cy="112" r="1.7"/><circle cx="412" cy="132" r="1.7"/><circle cx="412" cy="152" r="1.7"/><circle cx="412" cy="172" r="1.7"/><circle cx="412" cy="192" r="1.7"/><circle cx="412" cy="212" r="1.7"/><circle cx="412" cy="232" r="1.7"/><circle cx="412" cy="252" r="1.7"/><circle cx="412" cy="272" r="1.7"/><circle cx="412" cy="292" r="1.7"/><circle cx="412" cy="312" r="1.7"/><circle cx="412" cy="332" r="1.7"/><circle cx="412" cy="352" r="1.7"/><circle cx="412" cy="372" r="1.7"/><circle cx="412" cy="392" r="1.7"/><circle cx="412" cy="412" r="1.7"/><circle cx="412" cy="432" r="1.7"/><circle cx="412" cy="452" r="1.7"/><circle cx="412" cy="472" r="1.7"/><circle cx="412" cy="492" r="1.7"/><circle cx="412" cy="512" r="1.7"/><circle cx="412" cy="532" r="1.7"/><circle cx="432" cy="72" r="1.7"/><circle cx="432" cy="92" r="1.7"/><circle cx="432" cy="112" r="1.7"/><circle cx="432" cy="132" r="1.7"/><circle cx="432" cy="152" r="1.7"/><circle cx="432" cy="172" r="1.7"/><circle cx="432" cy="192" r="1.7"/><circle cx="432" cy="212" r="1.7"/><circle cx="432" cy="232" r="1.7"/><circle cx="432" cy="252" r="1.7"/><circle cx="432" cy="272" r="1.7"/><circle cx="432" cy="292" r="1.7"/><circle cx="432" cy="312" r="1.7"/><circle cx="432" cy="332" r="1.7"/><circle cx="432" cy="352" r="1.7"/><circle cx="432" cy="372" r="1.7"/><circle cx="432" cy="392" r="1.7"/><circle cx="432" cy="412" r="1.7"/><circle cx="432" cy="432" r="1.7"/><circle cx="432" cy="452" r="1.7"/><circle cx="432" cy="472" r="1.7"/><circle cx="432" cy="492" r="1.7"/><circle cx="432" cy="512" r="1.7"/><circle cx="452" cy="72" r="1.7"/><circle cx="452" cy="92" r="1.7"/><circle cx="452" cy="112" r="1.7"/><circle cx="452" cy="132" r="1.7"/><circle cx="452" cy="152" r="1.7"/><circle cx="452" cy="172" r="1.7"/><circle cx="452" cy="192" r="1.7"/><circle cx="452" cy="212" r="1.7"/><circle cx="452" cy="232" r="1.7"/><circle cx="452" cy="252" r="1.7"/><circle cx="452" cy="272" r="1.7"/><circle cx="452" cy="292" r="1.7"/><circle cx="452" cy="312" r="1.7"/><circle cx="452" cy="332" r="1.7"/><circle cx="452" cy="352" r="1.7"/><circle cx="452" cy="372" r="1.7"/><circle cx="452" cy="392" r="1.7"/><circle cx="452" cy="412" r="1.7"/><circle cx="452" cy="432" r="1.7"/><circle cx="452" cy="452" r="1.7"/><circle cx="452" cy="472" r="1.7"/><circle cx="452" cy="492" r="1.7"/><circle cx="452" cy="512" r="1.7"/><circle cx="472" cy="92" r="1.7"/><circle cx="472" cy="112" r="1.7"/><circle cx="472" cy="132" r="1.7"/><circle cx="472" cy="152" r="1.7"/><circle cx="472" cy="172" r="1.7"/><circle cx="472" cy="192" r="1.7"/><circle cx="472" cy="212" r="1.7"/><circle cx="472" cy="232" r="1.7"/><circle cx="472" cy="252" r="1.7"/><circle cx="472" cy="272" r="1.7"/><circle cx="472" cy="292" r="1.7"/><circle cx="472" cy="312" r="1.7"/><circle cx="472" cy="332" r="1.7"/><circle cx="472" cy="352" r="1.7"/><circle cx="472" cy="372" r="1.7"/><circle cx="472" cy="392" r="1.7"/><circle cx="472" cy="412" r="1.7"/><circle cx="472" cy="432" r="1.7"/><circle cx="472" cy="452" r="1.7"/><circle cx="472" cy="472" r="1.7"/><circle cx="472" cy="492" r="1.7"/><circle cx="492" cy="112" r="1.7"/><circle cx="492" cy="132" r="1.7"/><circle cx="492" cy="152" r="1.7"/><circle cx="492" cy="172" r="1.7"/><circle cx="492" cy="192" r="1.7"/><circle cx="492" cy="212" r="1.7"/><circle cx="492" cy="232" r="1.7"/><circle cx="492" cy="252" r="1.7"/><circle cx="492" cy="272" r="1.7"/><circle cx="492" cy="292" r="1.7"/><circle cx="492" cy="312" r="1.7"/><circle cx="492" cy="332" r="1.7"/><circle cx="492" cy="352" r="1.7"/><circle cx="492" cy="372" r="1.7"/><circle cx="492" cy="392" r="1.7"/><circle cx="492" cy="412" r="1.7"/><circle cx="492" cy="432" r="1.7"/><circle cx="492" cy="452" r="1.7"/><circle cx="492" cy="472" r="1.7"/><circle cx="512" cy="132" r="1.7"/><circle cx="512" cy="152" r="1.7"/><circle cx="512" cy="172" r="1.7"/><circle cx="512" cy="192" r="1.7"/><circle cx="512" cy="212" r="1.7"/><circle cx="512" cy="232" r="1.7"/><circle cx="512" cy="252" r="1.7"/><circle cx="512" cy="272" r="1.7"/><circle cx="512" cy="292" r="1.7"/><circle cx="512" cy="312" r="1.7"/><circle cx="512" cy="332" r="1.7"/><circle cx="512" cy="352" r="1.7"/><circle cx="512" cy="372" r="1.7"/><circle cx="512" cy="392" r="1.7"/><circle cx="512" cy="412" r="1.7"/><circle cx="512" cy="432" r="1.7"/><circle cx="512" cy="452" r="1.7"/><circle cx="532" cy="172" r="1.7"/><circle cx="532" cy="192" r="1.7"/><circle cx="532" cy="212" r="1.7"/><circle cx="532" cy="232" r="1.7"/><circle cx="532" cy="252" r="1.7"/><circle cx="532" cy="272" r="1.7"/><circle cx="532" cy="292" r="1.7"/><circle cx="532" cy="312" r="1.7"/><circle cx="532" cy="332" r="1.7"/><circle cx="532" cy="352" r="1.7"/><circle cx="532" cy="372" r="1.7"/><circle cx="532" cy="392" r="1.7"/><circle cx="532" cy="412" r="1.7"/><circle cx="552" cy="212" r="1.7"/><circle cx="552" cy="232" r="1.7"/><circle cx="552" cy="252" r="1.7"/><circle cx="552" cy="272" r="1.7"/><circle cx="552" cy="292" r="1.7"/><circle cx="552" cy="312" r="1.7"/><circle cx="552" cy="332" r="1.7"/><circle cx="552" cy="352" r="1.7"/><circle cx="552" cy="372" r="1.7"/></g></svg>